<svg xmlns="http://www.w3.org/2000/svg" viewBox="0 0 40 40"><defs><style>.cls-1{fill:#3cb0dc;}.cls-1,.cls-2,.cls-3{fill-rule:evenodd;}.cls-2{fill:#fcfcfc;}.cls-3{fill:#fff;}</style></defs><title>icons</title><g id="icono_b1" data-name="icono b1"><path class="cls-1" d="M39.37,15a19.79,19.79,0,0,0-.83-2.5,19.58,19.58,0,0,0-2.94-5A19.85,19.85,0,0,0,22.49.16a19.46,19.46,0,0,0-5,0A19.85,19.85,0,0,0,4.4,7.5a19.58,19.58,0,0,0-2.94,5A19.79,19.79,0,0,0,.63,15a20.16,20.16,0,0,0,0,10,20.07,20.07,0,0,0,3.76,7.49A17.6,17.6,0,0,0,6.77,35a19.84,19.84,0,0,0,10.74,4.85,19.46,19.46,0,0,0,5,0A19.84,19.84,0,0,0,33.23,35a17.6,17.6,0,0,0,2.38-2.5A20.07,20.07,0,0,0,39.37,25a20.16,20.16,0,0,0,0-10ZM17.51,9.25a1.78,1.78,0,0,1,1.41-1.66.59.59,0,0,1,.19,0,1.75,1.75,0,0,1,.4,0h1a1.75,1.75,0,0,1,.4,0,.59.59,0,0,1,.19,0,1.78,1.78,0,0,1,1.41,1.66v14a1.89,1.89,0,0,1-2,1.75h-1a1.89,1.89,0,0,1-2-1.75ZM20,32.49a2.46,2.46,0,0,1-2.15-1.25A2.41,2.41,0,0,1,17.51,30a2.49,2.49,0,0,1,5,0,2.41,2.41,0,0,1-.34,1.25A2.46,2.46,0,0,1,20,32.49Z"/><path class="cls-2" d="M22.49,30a2.41,2.41,0,0,1-.34,1.25,2.47,2.47,0,0,1-4.3,0A2.41,2.41,0,0,1,17.51,30a2.49,2.49,0,0,1,5,0Z"/><path class="cls-3" d="M22.49,9.25v14a1.89,1.89,0,0,1-2,1.75h-1a1.89,1.89,0,0,1-2-1.75v-14a1.78,1.78,0,0,1,1.41-1.66.59.59,0,0,1,.19,0,1.75,1.75,0,0,1,.4,0h1a1.75,1.75,0,0,1,.4,0,.59.59,0,0,1,.19,0A1.78,1.78,0,0,1,22.49,9.25Z"/></g></svg>