<svg xmlns="http://www.w3.org/2000/svg" viewBox="0 0 40 40"><defs><style>.cls-1{fill:#40c1a8;}</style></defs><title>icons</title><g id="icono_b2" data-name="icono b2"><path class="cls-1" d="M29.21,25.78l-.51.52a1.5,1.5,0,0,1-1.93.12,10.92,10.92,0,0,0-13.56,0,1.49,1.49,0,0,1-1.92-.12l-.52-.52a1.43,1.43,0,0,1,.12-2.18,14.57,14.57,0,0,1,18.2,0A1.44,1.44,0,0,1,29.21,25.78Z"/><path class="cls-1" d="M34.39,20.61l-.51.51a1.48,1.48,0,0,1-2,.09,18.26,18.26,0,0,0-23.87,0,1.49,1.49,0,0,1-2-.09l-.51-.51a1.46,1.46,0,0,1,.1-2.16,21.85,21.85,0,0,1,28.6,0A1.44,1.44,0,0,1,34.39,20.61Z"/><path class="cls-1" d="M39.57,15.43,39,16a1.46,1.46,0,0,1-2,0A25.5,25.5,0,0,0,3,16a1.46,1.46,0,0,1-2,0l-.54-.54a1.45,1.45,0,0,1,0-2.09,29.18,29.18,0,0,1,39.08,0A1.45,1.45,0,0,1,39.57,15.43Z"/><circle class="cls-1" cx="20" cy="31.35" r="3.65"/></g></svg>