<svg xmlns="http://www.w3.org/2000/svg" viewBox="0 0 40 40"><defs><style>.cls-1{fill:#f9c23a;fill-rule:evenodd;}</style></defs><title>icons</title><g id="icono_b3" data-name="icono b3"><path class="cls-1" d="M24.62,35.38a4.62,4.62,0,0,1-9.24,0,4.33,4.33,0,0,1,.28-1.53h8.68A4.33,4.33,0,0,1,24.62,35.38Z"/><path class="cls-1" d="M38.46,27.08v1.23A2.47,2.47,0,0,1,36,30.77H4a2.47,2.47,0,0,1-2.46-2.46V27.08A2.46,2.46,0,0,1,4,24.62H6.46a1.24,1.24,0,0,0,1.23-1.24V12.31A12.35,12.35,0,0,1,20,0h0A12.35,12.35,0,0,1,32.31,12.31V23.38a1.24,1.24,0,0,0,1.23,1.24H36A2.46,2.46,0,0,1,38.46,27.08Z"/></g></svg>