<svg xmlns="http://www.w3.org/2000/svg" viewBox="0 0 40 40"><defs><style>.cls-1{fill:#aa2626;}</style></defs><title>icons</title><g id="icono_c2" data-name="icono c2"><path class="cls-1" d="M34.39,20.61l-.51.51a1.48,1.48,0,0,1-2,.09,18.28,18.28,0,0,0-5.05-3.09l2.76-2.76a22,22,0,0,1,4.65,3.09A1.44,1.44,0,0,1,34.39,20.61Z"/><path class="cls-1" d="M28,7l-3,3a24.42,24.42,0,0,0-5-.51A25.44,25.44,0,0,0,3,16a1.46,1.46,0,0,1-2,0l-.54-.54a1.45,1.45,0,0,1,0-2.09A29.17,29.17,0,0,1,28,7Z"/><path class="cls-1" d="M39.57,15.43,39,16a1.46,1.46,0,0,1-2,0,25.38,25.38,0,0,0-4.69-3.33L35,10a29.28,29.28,0,0,1,4.52,3.36A1.45,1.45,0,0,1,39.57,15.43Z"/><circle class="cls-1" cx="20" cy="31.35" r="3.65"/><path class="cls-1" d="M34.29,6.79a1,1,0,0,1,0,1.42l-.88.88L32.5,10,8.21,34.29a1,1,0,0,1-1.42,0L5.71,33.21a1,1,0,0,1,0-1.42L7.5,30l3.75-3.74,5.46-5.47,7.3-7.3,3-3,2.89-2.89,1.86-1.86a1,1,0,0,1,1.42,0Z"/><path class="cls-1" d="M21.81,13.19l-3.68,3.68A18.05,18.05,0,0,0,8.06,21.21a1.49,1.49,0,0,1-2-.09l-.51-.51a1.46,1.46,0,0,1,.1-2.16A21.8,21.8,0,0,1,20,13.12C20.61,13.12,21.22,13.15,21.81,13.19Z"/><path class="cls-1" d="M29.21,25.78l-.51.52a1.5,1.5,0,0,1-1.93.12A10.85,10.85,0,0,0,20.9,24.1L24,21a14.66,14.66,0,0,1,5.07,2.62A1.44,1.44,0,0,1,29.21,25.78Z"/></g></svg>