<svg xmlns="http://www.w3.org/2000/svg" viewBox="0 0 40 40"><defs><style>.cls-1{fill:#adadad;}.cls-2{fill:#e25029;}</style></defs><title>icons</title><g id="icono_c3" data-name="icono c3"><path class="cls-1" d="M32.19,36.45l-12-8.61,7.79-7.79L36.54,32.1C42.51,40.47,40.56,42.42,32.19,36.45Z"/><path class="cls-2" d="M35.72,12.26,19,29l-5.51,5.51-1.14,1.14-1.69-1.69a3.11,3.11,0,0,1,0-4.41l.59-.59a1.55,1.55,0,0,0,0-2.2l-9-9a7.8,7.8,0,0,1,0-11L6.84,2.19a7.8,7.8,0,0,1,11,0l9,9a1.55,1.55,0,0,0,2.2,0l.59-.59a3.11,3.11,0,0,1,4.41,0Z"/></g></svg>