<svg xmlns="http://www.w3.org/2000/svg" viewBox="0 0 40 40"><defs><style>.cls-1{fill:#c262c4;}</style></defs><title>icons</title><g id="icono_d2" data-name="icono d2"><rect class="cls-1" y="34.29" width="40" height="5.71" rx="2.29"/><path class="cls-1" d="M31.24,20.19l-9.62,9.62a2.3,2.3,0,0,1-3.24,0L8.76,20.19a2.29,2.29,0,0,1,0-3.23L9.81,15.9a2.29,2.29,0,0,1,3.23,0l4.1,4.1V2.29A2.3,2.3,0,0,1,19.43,0h1.14a2.3,2.3,0,0,1,2.29,2.29V20L27,15.9a2.29,2.29,0,0,1,3.23,0l1,1.06A2.29,2.29,0,0,1,31.24,20.19Z"/></g></svg>